<svg xmlns="http://www.w3.org/2000/svg" width="20" height="22" viewBox="0 0 20 22" shape-rendering="crispEdges">
  <rect width="20" height="22" fill="none"/>
  <rect x="13" y="0" width="2" height="1" fill="#ffd84d"/>
  <rect x="11" y="1" width="5" height="1" fill="#ffd84d"/>
  <rect x="10" y="2" width="6" height="3" fill="#ffd84d"/>
  <rect x="11" y="2" width="3" height="2" fill="#ffe999"/>
  <rect x="11" y="5" width="5" height="1" fill="#ffd84d"/>
  <rect x="12" y="6" width="3" height="1" fill="#ffd84d"/>
  <rect x="14" y="2" width="1" height="2" fill="#111111"/>
  <rect x="16" y="3" width="3" height="1" fill="#e07820"/>
  <rect x="16" y="4" width="2" height="1" fill="#b85a00"/>
  <rect x="9" y="6" width="4" height="1" fill="#ffd84d"/>
  <rect x="7" y="7" width="8" height="1" fill="#ffd84d"/>
  <rect x="5" y="8" width="10" height="1" fill="#ffd84d"/>
  <rect x="4" y="9" width="11" height="1" fill="#ffd84d"/>
  <rect x="3" y="10" width="12" height="2" fill="#ffd84d"/>
  <rect x="4" y="12" width="11" height="1" fill="#ffd84d"/>
  <rect x="5" y="13" width="9" height="1" fill="#ffd84d"/>
  <rect x="7" y="14" width="6" height="1" fill="#ffd84d"/>
  <rect x="6" y="8" width="5" height="4" fill="#ffe999"/>
  <rect x="7" y="10" width="4" height="1" fill="#d49010"/>
  <rect x="6" y="11" width="5" height="1" fill="#d49010"/>
  <rect x="7" y="12" width="3" height="1" fill="#d49010"/>
  <rect x="2" y="7" width="2" height="1" fill="#ffd84d"/>
  <rect x="1" y="8" width="3" height="1" fill="#ffd84d"/>
  <rect x="1" y="9" width="2" height="1" fill="#ffd84d"/>
  <rect x="2" y="10" width="1" height="1" fill="#ffd84d"/>
  <rect x="8" y="15" width="2" height="2" fill="#e07820"/>
  <rect x="12" y="15" width="2" height="2" fill="#e07820"/>
  <rect x="6" y="17" width="5" height="1" fill="#e07820"/>
  <rect x="7" y="18" width="3" height="1" fill="#e07820"/>
  <rect x="10" y="17" width="5" height="1" fill="#e07820"/>
  <rect x="11" y="18" width="3" height="1" fill="#e07820"/>
</svg>